<?xml version="1.0" standalone="no"?>
<!DOCTYPE svg PUBLIC "-//W3C//DTD SVG 20010904//EN"
 "http://www.w3.org/TR/2001/REC-SVG-20010904/DTD/svg10.dtd">
<svg version="1.0" xmlns="http://www.w3.org/2000/svg"
 width="256.000000pt" height="256.000000pt" viewBox="0 0 256.000000 256.000000"
 preserveAspectRatio="xMidYMid meet">

<g transform="translate(0.000000,256.000000) scale(0.100000,-0.100000)"
fill="#000000" stroke="none">
<path d="M1037 2534 c-153 -37 -368 -142 -509 -250 -349 -266 -537 -656 -515
-1066 32 -569 413 -1030 972 -1174 101 -26 124 -29 295 -29 146 0 202 4 265
19 406 95 726 348 894 707 65 139 121 366 121 495 0 217 -239 356 -439 254
-70 -35 -92 -76 -137 -254 -22 -87 -63 -142 -134 -181 -48 -26 -65 -30 -130
-30 -97 1 -164 29 -224 96 -54 60 -76 121 -76 208 1 87 24 136 91 192 187 153
249 273 249 476 0 210 -111 399 -288 487 -122 62 -303 82 -435 50z m291 -371
c95 -44 115 -189 37 -268 -121 -121 -325 -3 -283 164 27 106 138 153 246 104z
m-506 -302 c105 -73 118 -222 26 -308 -122 -115 -328 -26 -328 142 0 79 45
149 115 182 46 21 145 12 187 -16z m-111 -659 c160 -83 159 -310 -1 -392 -57
-29 -102 -34 -162 -16 -98 28 -159 109 -160 212 -2 169 172 275 323 196z m646
-422 c58 -26 96 -60 131 -120 24 -39 27 -56 27 -130 0 -93 -10 -121 -67 -186
-104 -118 -302 -118 -406 0 -47 54 -64 93 -69 161 -6 76 9 133 50 186 84 110
211 144 334 89z"/>
</g>
</svg>
